<svg width="924" height="924" viewBox="0 0 924 924" fill="none" xmlns="http://www.w3.org/2000/svg">
<g filter="url(#filter0_dii_292_90)">
<path fill-rule="evenodd" clip-rule="evenodd" d="M874 306.627C874 296.845 874.004 287.062 873.944 277.279C873.895 269.038 873.8 260.799 873.576 252.562C873.092 234.609 872.033 216.502 868.84 198.749C865.602 180.741 860.314 163.98 851.981 147.617C843.789 131.534 833.088 116.817 820.32 104.058C807.555 91.2989 792.834 80.6049 776.746 72.4179C760.366 64.0829 743.587 58.797 725.558 55.56C707.803 52.372 689.691 51.315 671.738 50.83C663.495 50.607 655.253 50.513 647.008 50.462C637.22 50.402 627.432 50.407 617.644 50.407L503.997 50H418.997L307.361 50.407C297.554 50.407 287.747 50.402 277.94 50.462C269.678 50.513 261.42 50.607 253.161 50.83C235.167 51.315 217.014 52.373 199.217 55.565C181.164 58.801 164.36 64.0849 147.958 72.4139C131.835 80.6019 117.083 91.2969 104.291 104.058C91.5007 116.816 80.7798 131.53 72.5728 147.61C64.2169 163.981 58.9189 180.752 55.673 198.77C52.477 216.516 51.418 234.617 50.931 252.562C50.709 260.8 50.613 269.039 50.563 277.279C50.503 287.063 50 299.216 50 308.999L50.003 419.089L50 504.998L50.508 617.427C50.508 627.223 50.504 637.019 50.563 646.815C50.613 655.067 50.709 663.317 50.932 671.566C51.418 689.542 52.479 707.675 55.678 725.452C58.9229 743.484 64.2199 760.269 72.5688 776.653C80.7768 792.759 91.4997 807.495 104.291 820.272C117.082 833.049 131.83 843.757 147.95 851.956C164.362 860.302 181.174 865.595 199.238 868.836C217.027 872.029 235.174 873.088 253.161 873.573C261.42 873.796 269.679 873.891 277.941 873.941C287.748 874.001 297.554 873.997 307.361 873.997L420.006 874H505.217L617.644 873.996C627.432 873.996 637.22 874.001 647.008 873.941C655.253 873.891 663.495 873.796 671.738 873.573C689.698 873.087 707.816 872.027 725.579 868.832C743.597 865.591 760.368 860.3 776.739 851.959C792.831 843.761 807.554 833.051 820.32 820.272C833.086 807.497 843.786 792.763 851.978 776.66C860.316 760.268 865.604 743.475 868.844 725.431C872.034 707.661 873.092 689.535 873.577 671.566C873.8 663.316 873.895 655.066 873.944 646.815C874.005 637.019 874 627.223 874 617.427C874 617.427 873.994 506.983 873.994 504.998V418.999C873.994 417.533 874 306.627 874 306.627Z" fill="#0F0F11"/>
</g>
<rect x="105" y="106" width="712" height="712" rx="117" fill="#0F0F11" stroke="#4C4C50" stroke-width="26"/>
<g filter="url(#filter1_dd_292_90)">
<path fill-rule="evenodd" clip-rule="evenodd" d="M663.415 411.309V644.514C663.415 680.205 635.813 710.41 600.072 712.374C582.715 713.31 566.702 707.688 554.31 697.739C539.459 685.827 518.568 686.362 503.582 698.14C492.175 707.108 477.772 712.463 462.07 712.463C446.367 712.463 432.008 707.108 420.602 698.14C405.437 686.229 384.546 686.229 369.382 698.14C358.064 707.02 343.839 712.374 328.361 712.463C291.188 712.73 260.814 681.499 260.814 644.424V411.309C260.814 300.439 350.952 210.539 462.114 210.539C573.277 210.539 663.415 300.439 663.415 411.309Z" fill="white"/>
</g>
<g filter="url(#filter2_dd_292_90)">
<path fill-rule="evenodd" clip-rule="evenodd" d="M596.316 766C572.428 766 548.988 758.861 529.216 745.699C509.443 758.861 485.96 766 462.115 766C438.273 766 414.787 758.861 395.016 745.699C375.378 758.861 352.653 765.821 328.721 766H328.005C295.529 766 265.065 753.106 242.117 729.728C219.527 706.706 207.091 676.412 207.091 644.423V411.307C207.136 271.082 321.519 157 462.115 157C602.712 157 717.097 271.082 717.097 411.307V644.512C717.097 709.07 666.994 762.342 603.027 765.821C600.789 765.956 598.552 766 596.316 766ZM537.537 718.62C554.132 731.915 574.979 739.231 596.316 739.231C598.06 739.231 599.806 739.187 601.55 739.097C651.293 736.376 690.256 694.838 690.256 644.512V411.309C690.256 285.85 587.906 183.77 462.115 183.77C336.325 183.77 233.975 285.85 233.975 411.396V644.512C233.975 669.453 243.727 693.099 261.352 711.08C279.2 729.281 302.864 739.276 327.96 739.276H328.586C349.656 739.097 369.517 732.182 386.024 719.198C388.663 717.147 391.794 716.032 395.015 716.032C398.235 716.032 401.367 717.101 404.007 719.198C420.469 732.138 441.091 739.276 462.115 739.276C483.141 739.276 503.762 732.138 520.224 719.198C522.953 717.014 526.263 715.853 529.528 715.853C531.587 715.853 534.672 716.298 537.537 718.62Z" fill="#3B50EA"/>
</g>
<path fill-rule="evenodd" clip-rule="evenodd" d="M347.375 350.496L422.393 393.684V393.728C435.992 401.582 435.992 421.167 422.393 429.019L347.375 472.207C337.579 477.829 325.098 474.483 319.462 464.756C313.825 454.986 317.18 442.537 326.932 436.917L371.308 411.353L326.932 385.788C317.18 380.166 313.825 367.674 319.462 357.947C325.098 348.22 337.623 344.875 347.375 350.496ZM493.697 390.919H592.246C603.563 390.919 612.688 400.02 612.688 411.307C612.688 422.594 603.519 431.697 592.246 431.697H493.697C482.38 431.697 473.255 422.594 473.255 411.307C473.255 400.02 482.425 390.919 493.697 390.919Z" fill="#1E1E21"/>
<path d="M347.375 350.496C337.623 344.875 325.098 348.22 319.462 357.947C313.825 367.674 317.18 380.166 326.932 385.788L371.308 411.353L326.932 436.917C317.18 442.537 313.825 454.986 319.462 464.756C325.098 474.483 337.579 477.829 347.375 472.207L422.393 429.019C435.992 421.167 435.992 401.582 422.393 393.728L347.375 350.496Z" fill="#1E1E21"/>
<path d="M592.246 390.919H493.697C482.425 390.919 473.255 400.02 473.255 411.307C473.255 422.594 482.38 431.697 493.697 431.697H592.246C603.519 431.697 612.688 422.594 612.688 411.307C612.688 400.02 603.563 390.919 592.246 390.919Z" fill="#1E1E21"/>
<defs>
<filter id="filter0_dii_292_90" x="30" y="44" width="864" height="864" filterUnits="userSpaceOnUse" color-interpolation-filters="sRGB">
<feFlood flood-opacity="0" result="BackgroundImageFix"/>
<feColorMatrix in="SourceAlpha" type="matrix" values="0 0 0 0 0 0 0 0 0 0 0 0 0 0 0 0 0 0 127 0" result="hardAlpha"/>
<feOffset dy="14"/>
<feGaussianBlur stdDeviation="10"/>
<feColorMatrix type="matrix" values="0 0 0 0 0 0 0 0 0 0 0 0 0 0 0 0 0 0 0.25 0"/>
<feBlend mode="normal" in2="BackgroundImageFix" result="effect1_dropShadow_292_90"/>
<feBlend mode="normal" in="SourceGraphic" in2="effect1_dropShadow_292_90" result="shape"/>
<feColorMatrix in="SourceAlpha" type="matrix" values="0 0 0 0 0 0 0 0 0 0 0 0 0 0 0 0 0 0 127 0" result="hardAlpha"/>
<feOffset dy="4"/>
<feGaussianBlur stdDeviation="1"/>
<feComposite in2="hardAlpha" operator="arithmetic" k2="-1" k3="1"/>
<feColorMatrix type="matrix" values="0 0 0 0 1 0 0 0 0 1 0 0 0 0 1 0 0 0 0.44 0"/>
<feBlend mode="normal" in2="shape" result="effect2_innerShadow_292_90"/>
<feColorMatrix in="SourceAlpha" type="matrix" values="0 0 0 0 0 0 0 0 0 0 0 0 0 0 0 0 0 0 127 0" result="hardAlpha"/>
<feOffset dy="-3"/>
<feGaussianBlur stdDeviation="2"/>
<feComposite in2="hardAlpha" operator="arithmetic" k2="-1" k3="1"/>
<feColorMatrix type="matrix" values="0 0 0 0 0 0 0 0 0 0 0 0 0 0 0 0 0 0 0.25 0"/>
<feBlend mode="normal" in2="effect2_innerShadow_292_90" result="effect3_innerShadow_292_90"/>
</filter>
<filter id="filter1_dd_292_90" x="244.814" y="202.539" width="434.601" height="533.936" filterUnits="userSpaceOnUse" color-interpolation-filters="sRGB">
<feFlood flood-opacity="0" result="BackgroundImageFix"/>
<feColorMatrix in="SourceAlpha" type="matrix" values="0 0 0 0 0 0 0 0 0 0 0 0 0 0 0 0 0 0 127 0" result="hardAlpha"/>
<feOffset dy="4"/>
<feGaussianBlur stdDeviation="2"/>
<feComposite in2="hardAlpha" operator="out"/>
<feColorMatrix type="matrix" values="0 0 0 0 0 0 0 0 0 0 0 0 0 0 0 0 0 0 0.1 0"/>
<feBlend mode="normal" in2="BackgroundImageFix" result="effect1_dropShadow_292_90"/>
<feColorMatrix in="SourceAlpha" type="matrix" values="0 0 0 0 0 0 0 0 0 0 0 0 0 0 0 0 0 0 127 0" result="hardAlpha"/>
<feOffset dy="8"/>
<feGaussianBlur stdDeviation="8"/>
<feComposite in2="hardAlpha" operator="out"/>
<feColorMatrix type="matrix" values="0 0 0 0 0 0 0 0 0 0 0 0 0 0 0 0 0 0 0.2 0"/>
<feBlend mode="normal" in2="effect1_dropShadow_292_90" result="effect2_dropShadow_292_90"/>
<feBlend mode="normal" in="SourceGraphic" in2="effect2_dropShadow_292_90" result="shape"/>
</filter>
<filter id="filter2_dd_292_90" x="191.091" y="149" width="542.006" height="641" filterUnits="userSpaceOnUse" color-interpolation-filters="sRGB">
<feFlood flood-opacity="0" result="BackgroundImageFix"/>
<feColorMatrix in="SourceAlpha" type="matrix" values="0 0 0 0 0 0 0 0 0 0 0 0 0 0 0 0 0 0 127 0" result="hardAlpha"/>
<feOffset dy="4"/>
<feGaussianBlur stdDeviation="2"/>
<feComposite in2="hardAlpha" operator="out"/>
<feColorMatrix type="matrix" values="0 0 0 0 0 0 0 0 0 0 0 0 0 0 0 0 0 0 0.1 0"/>
<feBlend mode="normal" in2="BackgroundImageFix" result="effect1_dropShadow_292_90"/>
<feColorMatrix in="SourceAlpha" type="matrix" values="0 0 0 0 0 0 0 0 0 0 0 0 0 0 0 0 0 0 127 0" result="hardAlpha"/>
<feOffset dy="8"/>
<feGaussianBlur stdDeviation="8"/>
<feComposite in2="hardAlpha" operator="out"/>
<feColorMatrix type="matrix" values="0 0 0 0 0 0 0 0 0 0 0 0 0 0 0 0 0 0 0.2 0"/>
<feBlend mode="normal" in2="effect1_dropShadow_292_90" result="effect2_dropShadow_292_90"/>
<feBlend mode="normal" in="SourceGraphic" in2="effect2_dropShadow_292_90" result="shape"/>
</filter>
</defs>
</svg>
